<svg width="33" height="33" viewBox="0 0 33 33"  xmlns="http://www.w3.org/2000/svg">
<path d="M16.5 3.09375C13.8485 3.09375 11.2565 3.88001 9.05189 5.35311C6.84725 6.82621 5.12893 8.91998 4.11425 11.3696C3.09956 13.8193 2.83407 16.5149 3.35135 19.1154C3.86864 21.716 5.14546 24.1048 7.02036 25.9797C8.89525 27.8545 11.284 29.1314 13.8846 29.6487C16.4851 30.1659 19.1807 29.9004 21.6304 28.8858C24.08 27.8711 26.1738 26.1528 27.6469 23.9481C29.12 21.7435 29.9063 19.1515 29.9063 16.5C29.9025 12.9456 28.4889 9.53784 25.9755 7.0245C23.4622 4.51115 20.0544 3.0975 16.5 3.09375ZM22.3859 14.1359L15.1671 21.3546C15.0713 21.4505 14.9576 21.5266 14.8324 21.5785C14.7072 21.6303 14.573 21.6571 14.4375 21.6571C14.302 21.6571 14.1678 21.6303 14.0426 21.5785C13.9174 21.5266 13.8037 21.4505 13.7079 21.3546L10.6141 18.2609C10.4206 18.0674 10.3119 17.8049 10.3119 17.5312C10.3119 17.2576 10.4206 16.9951 10.6141 16.8016C10.8077 16.6081 11.0701 16.4994 11.3438 16.4994C11.6174 16.4994 11.8799 16.6081 12.0734 16.8016L14.4375 19.1671L20.9266 12.6766C21.0225 12.5808 21.1362 12.5048 21.2614 12.453C21.3866 12.4011 21.5208 12.3744 21.6563 12.3744C21.7918 12.3744 21.9259 12.4011 22.0511 12.453C22.1763 12.5048 22.2901 12.5808 22.3859 12.6766C22.4817 12.7725 22.5577 12.8862 22.6095 13.0114C22.6614 13.1366 22.6881 13.2707 22.6881 13.4062C22.6881 13.5418 22.6614 13.6759 22.6095 13.8011C22.5577 13.9263 22.4817 14.04 22.3859 14.1359Z" />
</svg>
