<svg width="33" height="33" viewBox="0 0 33 33"  xmlns="http://www.w3.org/2000/svg">
<path d="M26.8125 4.125H6.1875C5.64049 4.125 5.11589 4.3423 4.72909 4.72909C4.3423 5.11589 4.125 5.64049 4.125 6.1875V26.8125C4.125 27.3595 4.3423 27.8841 4.72909 28.2709C5.11589 28.6577 5.64049 28.875 6.1875 28.875H26.8125C27.3595 28.875 27.8841 28.6577 28.2709 28.2709C28.6577 27.8841 28.875 27.3595 28.875 26.8125V6.1875C28.875 5.64049 28.6577 5.11589 28.2709 4.72909C27.8841 4.3423 27.3595 4.125 26.8125 4.125ZM22.3859 14.1359L15.1671 21.3546C15.0713 21.4505 14.9576 21.5266 14.8324 21.5785C14.7072 21.6303 14.573 21.6571 14.4375 21.6571C14.302 21.6571 14.1678 21.6303 14.0426 21.5785C13.9174 21.5266 13.8037 21.4505 13.7079 21.3546L10.6141 18.2609C10.4206 18.0674 10.3119 17.8049 10.3119 17.5312C10.3119 17.2576 10.4206 16.9951 10.6141 16.8016C10.8076 16.6081 11.0701 16.4994 11.3438 16.4994C11.6174 16.4994 11.8799 16.6081 12.0734 16.8016L14.4375 19.1671L20.9266 12.6766C21.0225 12.5808 21.1362 12.5048 21.2614 12.453C21.3866 12.4011 21.5207 12.3744 21.6562 12.3744C21.7918 12.3744 21.9259 12.4011 22.0511 12.453C22.1763 12.5048 22.29 12.5808 22.3859 12.6766C22.4817 12.7725 22.5577 12.8862 22.6095 13.0114C22.6614 13.1366 22.6881 13.2707 22.6881 13.4062C22.6881 13.5418 22.6614 13.6759 22.6095 13.8011C22.5577 13.9263 22.4817 14.04 22.3859 14.1359Z" />
</svg>
