<svg width="35" height="35" viewBox="0 0 35 35"  xmlns="http://www.w3.org/2000/svg">
<path opacity="0.2" d="M30.625 17.5C30.625 20.0959 29.8552 22.6335 28.413 24.7919C26.9709 26.9503 24.921 28.6325 22.5227 29.6259C20.1244 30.6193 17.4854 30.8792 14.9394 30.3728C12.3934 29.8664 10.0548 28.6163 8.21923 26.7808C6.38367 24.9452 5.13363 22.6066 4.6272 20.0606C4.12077 17.5146 4.38069 14.8756 5.37409 12.4773C6.36749 10.079 8.04975 8.02916 10.2081 6.58696C12.3665 5.14477 14.9041 4.375 17.5 4.375C20.981 4.375 24.3194 5.75781 26.7808 8.21922C29.2422 10.6806 30.625 14.019 30.625 17.5Z" />
<path d="M17.5 3.28125C14.6878 3.28125 11.9388 4.11517 9.60049 5.67754C7.26223 7.23992 5.43978 9.46058 4.36359 12.0587C3.28741 14.6569 3.00583 17.5158 3.55447 20.2739C4.1031 23.0321 5.4573 25.5656 7.44583 27.5542C9.43436 29.5427 11.9679 30.8969 14.7261 31.4455C17.4842 31.9942 20.3431 31.7126 22.9413 30.6364C25.5394 29.5602 27.7601 27.7378 29.3225 25.3995C30.8848 23.0613 31.7188 20.3122 31.7188 17.5C31.7148 13.7302 30.2155 10.1159 27.5498 7.45022C24.8841 4.78455 21.2698 3.28523 17.5 3.28125ZM17.5 29.5312C15.1204 29.5312 12.7943 28.8256 10.8158 27.5036C8.83727 26.1816 7.2952 24.3026 6.38458 22.1042C5.47396 19.9057 5.2357 17.4867 5.69993 15.1528C6.16416 12.819 7.31003 10.6752 8.99263 8.99262C10.6752 7.31002 12.819 6.16416 15.1528 5.69993C17.4867 5.2357 19.9057 5.47396 22.1042 6.38457C24.3026 7.29519 26.1816 8.83727 27.5036 10.8158C28.8256 12.7943 29.5313 15.1204 29.5313 17.5C29.5276 20.6898 28.2589 23.7479 26.0034 26.0034C23.7479 28.2589 20.6898 29.5276 17.5 29.5312Z" />
</svg>
