<svg width="33" height="33" viewBox="0 0 33 33"  xmlns="http://www.w3.org/2000/svg">
<path d="M29.3017 9.45785L23.5422 3.69703C23.3506 3.50546 23.1232 3.3535 22.873 3.24982C22.6227 3.14614 22.3545 3.09277 22.0836 3.09277C21.8127 3.09277 21.5445 3.14614 21.2942 3.24982C21.0439 3.3535 20.8165 3.50546 20.625 3.69703L4.72958 19.5938C4.53723 19.7846 4.38472 20.0117 4.28093 20.262C4.17715 20.5123 4.12414 20.7807 4.12501 21.0517V26.8125C4.12501 27.3595 4.34231 27.8841 4.7291 28.2709C5.1159 28.6577 5.6405 28.875 6.18751 28.875H11.9483C12.2193 28.8759 12.4877 28.8229 12.738 28.7191C12.9883 28.6153 13.2154 28.4628 13.4063 28.2704L29.3017 12.375C29.4933 12.1835 29.6452 11.9561 29.7489 11.7058C29.8526 11.4556 29.9059 11.1873 29.9059 10.9164C29.9059 10.6455 29.8526 10.3773 29.7489 10.127C29.6452 9.87677 29.4933 9.64938 29.3017 9.45785ZM11.9483 26.8125H6.18751V21.0517L17.5313 9.70793L23.2921 15.4688L11.9483 26.8125ZM24.75 14.0095L18.9892 8.25L22.0829 5.15625L27.8438 10.9158L24.75 14.0095Z" />
</svg>
