<svg width="33" height="33" viewBox="0 0 33 33"  xmlns="http://www.w3.org/2000/svg">
<path opacity="0.2" d="M27.8438 6.1875V26.8125C27.8438 27.086 27.7351 27.3483 27.5417 27.5417C27.3483 27.7351 27.086 27.8438 26.8125 27.8438H6.1875C5.914 27.8438 5.65169 27.7351 5.4583 27.5417C5.2649 27.3483 5.15625 27.086 5.15625 26.8125V6.1875C5.15625 5.914 5.2649 5.65169 5.4583 5.4583C5.65169 5.2649 5.914 5.15625 6.1875 5.15625H26.8125C27.086 5.15625 27.3483 5.2649 27.5417 5.4583C27.7351 5.65169 27.8438 5.914 27.8438 6.1875Z" />
<path d="M26.8125 4.125H6.1875C5.64049 4.125 5.11589 4.3423 4.72909 4.72909C4.3423 5.11589 4.125 5.64049 4.125 6.1875V26.8125C4.125 27.3595 4.3423 27.8841 4.72909 28.2709C5.11589 28.6577 5.64049 28.875 6.1875 28.875H26.8125C27.3595 28.875 27.8841 28.6577 28.2709 28.2709C28.6577 27.8841 28.875 27.3595 28.875 26.8125V6.1875C28.875 5.64049 28.6577 5.11589 28.2709 4.72909C27.8841 4.3423 27.3595 4.125 26.8125 4.125ZM26.8125 26.8125H6.1875V6.1875H26.8125V26.8125Z" />
</svg>
