<svg width="33" height="33" viewBox="0 0 33 33"  xmlns="http://www.w3.org/2000/svg">
<path d="M26.8125 4.125H6.1875C5.64049 4.125 5.11589 4.3423 4.72909 4.72909C4.3423 5.11589 4.125 5.64049 4.125 6.1875V26.8125C4.125 27.3595 4.3423 27.8841 4.72909 28.2709C5.11589 28.6577 5.64049 28.875 6.1875 28.875H26.8125C27.3595 28.875 27.8841 28.6577 28.2709 28.2709C28.6577 27.8841 28.875 27.3595 28.875 26.8125V6.1875C28.875 5.64049 28.6577 5.11589 28.2709 4.72909C27.8841 4.3423 27.3595 4.125 26.8125 4.125ZM26.8125 26.8125H6.1875V6.1875H26.8125V26.8125Z" />
</svg>
