<svg width="33" height="33" viewBox="0 0 33 33"  xmlns="http://www.w3.org/2000/svg">
<path d="M27.8438 6.1875H22.6875V5.15625C22.6875 4.33574 22.3616 3.54883 21.7814 2.96864C21.2012 2.38845 20.4143 2.0625 19.5938 2.0625H13.4062C12.5857 2.0625 11.7988 2.38845 11.2186 2.96864C10.6384 3.54883 10.3125 4.33574 10.3125 5.15625V6.1875H5.15625C4.88275 6.1875 4.62044 6.29615 4.42705 6.48955C4.23365 6.68294 4.125 6.94525 4.125 7.21875C4.125 7.49225 4.23365 7.75456 4.42705 7.94795C4.62044 8.14135 4.88275 8.25 5.15625 8.25H6.1875V26.8125C6.1875 27.3595 6.4048 27.8841 6.79159 28.2709C7.17839 28.6577 7.70299 28.875 8.25 28.875H24.75C25.297 28.875 25.8216 28.6577 26.2084 28.2709C26.5952 27.8841 26.8125 27.3595 26.8125 26.8125V8.25H27.8438C28.1173 8.25 28.3796 8.14135 28.573 7.94795C28.7664 7.75456 28.875 7.49225 28.875 7.21875C28.875 6.94525 28.7664 6.68294 28.573 6.48955C28.3796 6.29615 28.1173 6.1875 27.8438 6.1875ZM12.375 5.15625C12.375 4.88275 12.4836 4.62044 12.677 4.42705C12.8704 4.23365 13.1327 4.125 13.4062 4.125H19.5938C19.8673 4.125 20.1296 4.23365 20.323 4.42705C20.5164 4.62044 20.625 4.88275 20.625 5.15625V6.1875H12.375V5.15625ZM24.75 26.8125H8.25V8.25H24.75V26.8125ZM14.4375 13.4062V21.6562C14.4375 21.9298 14.3289 22.1921 14.1355 22.3855C13.9421 22.5789 13.6798 22.6875 13.4062 22.6875C13.1327 22.6875 12.8704 22.5789 12.677 22.3855C12.4836 22.1921 12.375 21.9298 12.375 21.6562V13.4062C12.375 13.1327 12.4836 12.8704 12.677 12.677C12.8704 12.4836 13.1327 12.375 13.4062 12.375C13.6798 12.375 13.9421 12.4836 14.1355 12.677C14.3289 12.8704 14.4375 13.1327 14.4375 13.4062ZM20.625 13.4062V21.6562C20.625 21.9298 20.5164 22.1921 20.323 22.3855C20.1296 22.5789 19.8673 22.6875 19.5938 22.6875C19.3202 22.6875 19.0579 22.5789 18.8645 22.3855C18.6711 22.1921 18.5625 21.9298 18.5625 21.6562V13.4062C18.5625 13.1327 18.6711 12.8704 18.8645 12.677C19.0579 12.4836 19.3202 12.375 19.5938 12.375C19.8673 12.375 20.1296 12.4836 20.323 12.677C20.5164 12.8704 20.625 13.1327 20.625 13.4062Z" />
</svg>
